<?xml version="1.0" encoding="UTF-8" standalone="no"?>
<svg
   version="1.0"
   width="170.000000pt"
   height="61.000000pt"
   viewBox="0 0 170.000000 61.000000"
   preserveAspectRatio="xMidYMid meet"
   id="svg1"
   sodipodi:docname="sqrt.svg"
   inkscape:version="1.4.3 (fcd0343856, 2026-01-01)"
   xmlns:inkscape="http://www.inkscape.org/namespaces/inkscape"
   xmlns:sodipodi="http://sodipodi.sourceforge.net/DTD/sodipodi-0.dtd"
   xmlns="http://www.w3.org/2000/svg"
   xmlns:svg="http://www.w3.org/2000/svg">
  <defs
     id="defs1" />
  <sodipodi:namedview
     id="namedview1"
     pagecolor="#ffffff"
     bordercolor="#666666"
     borderopacity="1.0"
     inkscape:showpageshadow="2"
     inkscape:pageopacity="0.0"
     inkscape:pagecheckerboard="0"
     inkscape:deskcolor="#d1d1d1"
     inkscape:document-units="pt"
     showgrid="true"
     inkscape:zoom="11.698952"
     inkscape:cx="84.622961"
     inkscape:cy="20.557396"
     inkscape:window-width="1850"
     inkscape:window-height="1016"
     inkscape:window-x="70"
     inkscape:window-y="27"
     inkscape:window-maximized="1"
     inkscape:current-layer="g1">
    <inkscape:grid
       id="grid1"
       units="pt"
       originx="0"
       originy="0"
       spacingx="0.74999998"
       spacingy="0.74999998"
       empcolor="#3f3fff"
       empopacity="0.25098039"
       color="#3f3fff"
       opacity="0.1254902"
       empspacing="5"
       enabled="true"
       visible="true" />
  </sodipodi:namedview>
  <metadata
     id="metadata1">
Created by potrace 1.16, written by Peter Selinger 2001-2019
</metadata>
  <g
     transform="translate(0.000000,61.000000) scale(0.100000,-0.100000)"
     fill="#000000"
     stroke="none"
     id="g1">
    <path
       d="m 410.6448,596.25455 c -52.01622,-1.52077 -90.0699,-7.17037 -96.13414,-14.11479 -5.06429,-6.95363 -20.44144,-47.81367 -32.84636,-91.70123 -12.40492,-43.88756 -36.13187,-122.67228 -52.61034,-174.52264 -15.47851,-51.85958 -36.11344,-120.67237 -45.40792,-152.58808 -9.28526,-30.91575 -20.52437,-56.81329 -23.52424,-56.78565 -3.99983,0.0369 -17.7873,23.16488 -30.52875,51.28348 C 95.267178,231.14504 70.535454,260.37417 54.416347,247.52215 36.278897,232.68864 140.33939,21.72084 165.33833,21.490482 c 12.99945,-0.119786 25.22008,23.768624 49.91935,99.544258 48.37094,148.5606 70.01505,218.36413 102.04573,330.07373 l 28.93867,101.73767 400.02909,1.31406 c 221.01827,0.96351 522.03313,1.18988 670.02683,-0.17384 147.9937,-1.36371 271.0069,-0.49716 273.0345,2.48429 3.0275,2.97223 3.1104,11.97184 -0.8065,21.00832 -4.8707,14.04548 -64.8498,16.59825 -597.8548,18.5096 -326.00457,1.00395 -632.01001,1.82361 -680.0264,0.26598 z"
       id="path1" />
  </g>
</svg>
