<?xml version="1.0" encoding="utf-8"?>
<!-- Generator: Adobe Illustrator 15.1.0, SVG Export Plug-In . SVG Version: 6.00 Build 0)  -->
<!DOCTYPE svg PUBLIC "-//W3C//DTD SVG 1.1//EN" "http://www.w3.org/Graphics/SVG/1.1/DTD/svg11.dtd">
<svg version="1.1" id="Layer_1" xmlns="http://www.w3.org/2000/svg" xmlns:xlink="http://www.w3.org/1999/xlink" x="0px" y="0px"
	 width="1000px" height="1000px" viewBox="0 0 1000 1000" enable-background="new 0 0 1000 1000" xml:space="preserve">
<g>
	<path fill-rule="evenodd" clip-rule="evenodd" d="M773.184,226.605c26.883,70.387,7.621,152.414,12.91,230.848
		c7.73,114.844,37.895,228.625,81.293,308.965c53.133,8.465,62.234,93.566,19.578,126.801
		C764.504,924.973,717.297,756.891,685.332,646.07C584.141,772.449,484.594,900.523,256.125,899.676
		c-49.746-15.559-100.34-40.75-133.312-87.746c-26.727-38.316-35.617-98.543-35.773-143.102
		C86.191,406.754,230.035,106.945,499.996,99.801c110.82-2.965,185.758,49.324,234.129,113.785
		C745.98,219.09,767.891,214.539,773.184,226.605z M386.211,259.098C258.93,340.176,183.887,574.73,230.141,746.836
		c88.594,66.469,215.766-21.062,269.855-74.832c68.797-68.219,141.938-173.375,152.84-256.836c4.973-38.371-8.043-96.902,0-139.824
		C593.031,215.859,464.113,209.508,386.211,259.098z"/>
</g>
</svg>
