<?xml version="1.0" encoding="utf-8"?>
<!-- Generator: Adobe Illustrator 15.1.0, SVG Export Plug-In . SVG Version: 6.00 Build 0)  -->
<!DOCTYPE svg PUBLIC "-//W3C//DTD SVG 1.1//EN" "http://www.w3.org/Graphics/SVG/1.1/DTD/svg11.dtd">
<svg version="1.1" id="Layer_1" xmlns="http://www.w3.org/2000/svg" xmlns:xlink="http://www.w3.org/1999/xlink" x="0px" y="0px"
	 width="1000px" height="1000px" viewBox="0 0 1000 1000" enable-background="new 0 0 1000 1000" xml:space="preserve">
<g>
	<path fill-rule="evenodd" clip-rule="evenodd" d="M332.973,480.199c43.32-56.324,110.652-117.246,209.52-116.133
		c86.34,1,128.957,41.871,175.277,91.082c15.27,33.242,35.352,67.223,43.207,107.023C777.801,646.957,734,735.301,706.43,796.664
		c-19.566,15.344-29.645,37.727-50.102,54.621c-74.406,61.367-219.969,62.852-305.125,11.414
		c-6.371,17.121-20.75,20.234-38.684,25.051c-68.594,18.453-71.078-119.395-75.152-209.52c-3.668-80.336,2.52-166.57,9.117-248.129
		c9.742-120.586-20.863-246.242,9.113-321.023c13.637,0.035,27.906-12.379,43.246-9.117c27.051,5.742,31.832,72.262,34.129,102.461
		C339.531,287.355,334.383,408.793,332.973,480.199z M499.211,812.598c22.012-0.293,69.812-11.336,84.191-20.527
		c92.195-58.254,125.918-257.988,22.828-320.984c-19.344-11.824-71.891-22.57-100.203-13.676
		c-107.91,33.945-149.559,153.488-148.004,302.793C395.043,789.402,441.918,813.34,499.211,812.598z"/>
</g>
</svg>
