<?xml version="1.0" encoding="utf-8"?>
<!-- Generator: Adobe Illustrator 15.1.0, SVG Export Plug-In . SVG Version: 6.00 Build 0)  -->
<!DOCTYPE svg PUBLIC "-//W3C//DTD SVG 1.1//EN" "http://www.w3.org/Graphics/SVG/1.1/DTD/svg11.dtd">
<svg version="1.1" id="Layer_1" xmlns="http://www.w3.org/2000/svg" xmlns:xlink="http://www.w3.org/1999/xlink" x="0px" y="0px"
	 width="1000px" height="1000px" viewBox="0 0 1000 1000" enable-background="new 0 0 1000 1000" xml:space="preserve">
<g>
	<path fill-rule="evenodd" clip-rule="evenodd" d="M736.844,297.879c-84.727-27.23-114.781-106.039-222.027-54.668
		c-56.238,26.914-152.797,123.844-180.184,196.262c-27.285,72.105-27.965,171.129,3.246,241.297
		c20.945,47.129,71.164,98.234,151.176,90.066c77.082-7.75,148.504-40.008,222.027-64.305c29.113-9.633,59.273-19.582,73.938-12.984
		c19.059,8.691,36.234,55.926,32.258,80.43c-7.438,44.512-88.918,56.871-128.715,70.797
		c-67.969,23.879-134.574,55.09-215.582,54.773c-186.211-0.941-295.441-169.449-289.527-357.125
		c3.195-102.371,48.754-178.98,90.07-244.543c62.418-98.969,162.59-164.371,279.836-196.262
		c22.41-6.074,78.125,2.145,103.051,12.883c26.184,11.363,66.398,33.406,86.82,54.719c15.922,16.547,44.406,51.266,41.789,77.188
		C782.086,276.828,759.676,275.992,736.844,297.879z"/>
</g>
</svg>
