<?xml version="1.0" encoding="utf-8"?>
<!-- Generator: Adobe Illustrator 15.1.0, SVG Export Plug-In . SVG Version: 6.00 Build 0)  -->
<!DOCTYPE svg PUBLIC "-//W3C//DTD SVG 1.1//EN" "http://www.w3.org/Graphics/SVG/1.1/DTD/svg11.dtd">
<svg version="1.1" id="Layer_1" xmlns="http://www.w3.org/2000/svg" xmlns:xlink="http://www.w3.org/1999/xlink" x="0px" y="0px"
	 width="1000px" height="1000px" viewBox="0 0 1000 1000" enable-background="new 0 0 1000 1000" xml:space="preserve">
<g>
	<path fill-rule="evenodd" clip-rule="evenodd" d="M690.84,102.262c12.137,38.902,15.344,83.98,18.891,129.875
		c4.43,58.887,4.91,129.742,0,186.445c-4.504,50.977-5.594,108.156-2.184,157.121c6.477,91.824,32.324,179.387,12.617,261.832
		c-3.07,3.547-13.164,8.797-18.891,10.504c-11.457,3.41-45.621,2.453-54.422-4.16c-11.387-8.523-7.297-24.484-10.5-39.828
		c-65.332,37.715-189.309,140.414-284.918,73.312c-34.984-24.551-53.531-61.309-71.195-106.793
		c-26.492-122.617,18.207-242.945,87.973-328.938c52.781-65.059,170.145-97.895,259.82-41.906
		c17.73-86.301-8.32-216.348,16.707-295.387C652.992,96.977,679.312,99.77,690.84,102.262z M625.848,600.832
		c-2.863-48.008-22.844-125.273-58.613-142.457c-34.199-7.402-74.094-10.23-100.551,4.191
		c-58.375,31.848-114.465,143.992-117.328,217.848c-2.117,54.828,19.773,129.297,62.84,138.301c14.285,3,33.758-1.977,48.18-6.273
		c63.047-18.754,115.828-70.105,167.656-100.52C622.031,676.188,628.031,637.656,625.848,600.832z"/>
</g>
</svg>
