<?xml version="1.0" encoding="utf-8"?>
<!-- Generator: Adobe Illustrator 15.1.0, SVG Export Plug-In . SVG Version: 6.00 Build 0)  -->
<!DOCTYPE svg PUBLIC "-//W3C//DTD SVG 1.1//EN" "http://www.w3.org/Graphics/SVG/1.1/DTD/svg11.dtd">
<svg version="1.1" id="Layer_1" xmlns="http://www.w3.org/2000/svg" xmlns:xlink="http://www.w3.org/1999/xlink" x="0px" y="0px"
	 width="1000px" height="1000px" viewBox="0 0 1000 1000" enable-background="new 0 0 1000 1000" xml:space="preserve">
<g>
	<path fill-rule="evenodd" clip-rule="evenodd" d="M297.215,550.434c-3.004,94.438,29.68,173.977,102.492,204.992
		c89.824,38.129,217.332-3.113,286.809-41.133c26.234-14.23,46.246-47.246,71.812-47.746c29.57-0.555,76.371,41.633,81.82,61.531
		c6.668,23.566-14.008,55.473-34.02,71.59c-32.461,26.348-88.043,45.133-136.734,61.586
		c-102.715,34.461-230.332,63.586-341.445,3.336c-64.473-34.906-100.77-87.82-140.012-150.297
		c-69.867-145.461,0-362.176,88.82-471.176c49.914-61.363,143.129-121.895,201.488-136.621
		c86.766-21.902,200.375,10.227,262.965,58.082c86.707,66.254,120.059,204.379,81.926,320.992
		c-45.242,65.031-142.848,48.801-256.125,58.027C462.793,552.102,373.418,563.109,297.215,550.434z M635.379,256.734
		c-143.68-76.258-270.133,70.98-310.82,170.75c129.898-9.891,247.457-22.453,379.078-23.898
		C711.863,332.438,670.508,275.469,635.379,256.734z"/>
</g>
</svg>
