<?xml version="1.0" encoding="utf-8"?>
<!-- Generator: Adobe Illustrator 15.1.0, SVG Export Plug-In . SVG Version: 6.00 Build 0)  -->
<!DOCTYPE svg PUBLIC "-//W3C//DTD SVG 1.1//EN" "http://www.w3.org/Graphics/SVG/1.1/DTD/svg11.dtd">
<svg version="1.1" id="Layer_1" xmlns="http://www.w3.org/2000/svg" xmlns:xlink="http://www.w3.org/1999/xlink" x="0px" y="0px"
	 width="1000px" height="1000px" viewBox="0 0 1000 1000" enable-background="new 0 0 1000 1000" xml:space="preserve">
<g>
	<path fill-rule="evenodd" clip-rule="evenodd" d="M497.652,193.125c-26.402,20.234-23.945,61.273-30.223,97.621
		c-6.391,36.953-11.27,75.762-11.613,113.848c21.977-4.5,40.207-3.477,58.098-9.305c24.699-8.016,37.145-21.711,65.059-2.305
		c20.5,14.258,34.949,45.652,13.918,69.707c-25.57,29.238-90.551,24.094-134.727,32.527
		c-10.402,111.617,24.734,250.203,6.957,362.539c-2.156,13.617-10.137,27.992-18.609,39.488
		c-15.391,3.176-34.871,2.344-53.441,2.344c-30.148-35.703-16.305-99.699-16.266-160.371c0.039-85.328-18.457-156.93-13.957-248.652
		c-27.609-8.734-76.062,3.293-92.934-16.262c-20.766-72.32,26.215-84.914,92.934-79.016
		c8.055-106.207,14.488-207.043,69.746-274.219c23.488-17.098,54.277-23.262,85.973-20.918
		c34.383,14.527,66.457,37.07,111.543,60.445c27.836,14.445,93.879,30.41,104.543,53.441c6.961,14.98-18.609,65.438-39.488,69.711
		c-25.871,5.293-69.141-26.402-99.93-41.832C560.363,224.441,527.684,206.172,497.652,193.125z"/>
</g>
</svg>
