<?xml version="1.0" encoding="utf-8"?>
<!-- Generator: Adobe Illustrator 15.1.0, SVG Export Plug-In . SVG Version: 6.00 Build 0)  -->
<!DOCTYPE svg PUBLIC "-//W3C//DTD SVG 1.1//EN" "http://www.w3.org/Graphics/SVG/1.1/DTD/svg11.dtd">
<svg version="1.1" id="Layer_1" xmlns="http://www.w3.org/2000/svg" xmlns:xlink="http://www.w3.org/1999/xlink" x="0px" y="0px"
	 width="1000px" height="1000px" viewBox="0 0 1000 1000" enable-background="new 0 0 1000 1000" xml:space="preserve">
<g>
	<path fill-rule="evenodd" clip-rule="evenodd" d="M666.949,505.52c-14.422,5.301-22.531,22.18-35.859,33.52
		c-51.141,43.578-130.73,92.375-213.129,93.391c-97.367,1.168-151.738-81.656-155.676-172.438
		c-5.184-119.152,43.965-236.941,117.32-304.098c45.254-41.434,108.98-70.629,182.023-47.906
		c62.445,19.375,111.242,68.133,136.5,122.117c45.371-0.625,44.199,58.234,47.863,100.602c3.742,42.328,3.43,68.25,7.172,98.184
		c13.645,107.734,17.695,214.531-11.926,301.684C710.836,820.066,638.883,872.375,542.453,893.5
		c-68.402,14.965-142.07,1.559-203.539-12.008c-11.691-2.57-45.914-20.578-57.492-28.688
		c-23.578-16.68-68.363-80.137-26.309-107.809c6.277-4.133,39.992-9.59,47.863-7.172c15.555,4.598,19.41,25.492,31.145,35.938
		c52.617,46.461,208.723,39.754,263.445,0c16.371-11.93,40.848-40.227,47.867-59.871c5.145-14.188,4.52-32.66,9.586-50.359
		C667.258,620.656,678.875,567.023,666.949,505.52z M489.797,196.586c-65.602,25.918-138.293,135.328-134.121,244.27
		c1.051,27.129,6.82,69.926,26.348,86.219c31.805,26.543,98.926-2.535,124.531-16.762c51.723-28.766,108.941-80.176,129.289-131.703
		c8.34-21.125,17.539-70.395,7.25-98.223c-6.238-16.684-31.57-33.52-50.359-47.863c-29.621-22.688-59.012-42.836-95.766-35.938
		C494.863,196.977,491.746,195.805,489.797,196.586z"/>
</g>
</svg>
