<?xml version="1.0" encoding="utf-8"?>
<!-- Generator: Adobe Illustrator 15.1.0, SVG Export Plug-In . SVG Version: 6.00 Build 0)  -->
<!DOCTYPE svg PUBLIC "-//W3C//DTD SVG 1.1//EN" "http://www.w3.org/Graphics/SVG/1.1/DTD/svg11.dtd">
<svg version="1.1" id="Layer_1" xmlns="http://www.w3.org/2000/svg" xmlns:xlink="http://www.w3.org/1999/xlink" x="0px" y="0px"
	 width="1000px" height="1000px" viewBox="0 0 1000 1000" enable-background="new 0 0 1000 1000" xml:space="preserve">
<g>
	<path fill-rule="evenodd" clip-rule="evenodd" d="M440.844,101.121c22.66-8.137,78.109,25.812,84.129,61.176
		c9.504,55.445-50.926,119.445-101.973,109.648c-18.555-3.566-41.836-24.445-48.477-38.266
		C347.008,176.363,393.781,117.719,440.844,101.121z"/>
	<path fill-rule="evenodd" clip-rule="evenodd" d="M402.578,351.012c31.336,0.121,67.32-4.441,79.066,15.273
		c6.473,133.637-6.02,299.527,12.738,428.352c35.402,7.805,77.031-32.785,109.652-20.336c20.836,7.887,21.5,36.855,30.629,61.176
		c-13.281,30.047-83.172,58.105-124.965,63.75c-38.227,5.23-87.074-20.586-104.547-56.113
		c-14.734-45.156-25.277-132.895-22.953-229.43c1.871-78.027-7.801-156.801-2.57-209.133
		C381.992,381.102,388.758,363.418,402.578,351.012z"/>
</g>
</svg>
