<?xml version="1.0" encoding="utf-8"?>
<!-- Generator: Adobe Illustrator 15.1.0, SVG Export Plug-In . SVG Version: 6.00 Build 0)  -->
<!DOCTYPE svg PUBLIC "-//W3C//DTD SVG 1.1//EN" "http://www.w3.org/Graphics/SVG/1.1/DTD/svg11.dtd">
<svg version="1.1" id="Layer_1" xmlns="http://www.w3.org/2000/svg" xmlns:xlink="http://www.w3.org/1999/xlink" x="0px" y="0px"
	 width="1000px" height="1000px" viewBox="0 0 1000 1000" enable-background="new 0 0 1000 1000" xml:space="preserve">
<g>
	<path fill-rule="evenodd" clip-rule="evenodd" d="M622.41,101.809c6.846,19.975,26.482,22.246,32.766,39.641
		c13.467,37.396-32.822,99.955-75.857,91.344c-19.918-3.984-42.754-29.4-37.9-63.768C547.758,124,572.025,88.764,622.41,101.809z"/>
	<path fill-rule="evenodd" clip-rule="evenodd" d="M655.176,424.119c2.189,13.859,1.012,24.016,1.74,37.93
		c0.729,15.654,7.35,30.551,8.584,46.541c3.254,41.436-7.518,91.203,0,132.723c-7.742,53.135-6.844,104.586-34.449,143.02
		c-1.234,5.273,1.795,6.283,1.684,10.379c-17.619,24.855-39.838,45.168-60.26,67.217c-37.508,18.797-88.146,52.461-141.363,29.289
		c-18.854,3.311-42.25-18.348-65.506-34.451c-12.793-8.92-24.828-10.379-29.289-24.182c-12.316-37.93,21.994-63.57,56.865-46.514
		c10.381,25.865,37.535,34.844,67.217,41.352c31.926-4.264,55.631-16.721,77.568-30.971c12.682-22.332,32.656-39.838,43.092-67.217
		c15.205-39.949,15.709-93.701,15.541-144.814c-0.225-54.426-4.207-110.057-10.379-156.85c0.449-5.021-3.199-5.947-5.162-8.613
		c-0.506-37.254-12.736-69.348-10.324-108.596c4.039-7.434,9.707-13.242,15.486-18.965c17.674,2.273,31.477-8.695,43.09,0
		c11.223,8.389,7.014,31.898,10.381,49.992c2.131,11.67,8.359,24.604,10.324,37.93C652.707,397.637,649.678,415.479,655.176,424.119
		z"/>
</g>
</svg>
