<?xml version="1.0" encoding="utf-8"?>
<!-- Generator: Adobe Illustrator 15.1.0, SVG Export Plug-In . SVG Version: 6.00 Build 0)  -->
<!DOCTYPE svg PUBLIC "-//W3C//DTD SVG 1.1//EN" "http://www.w3.org/Graphics/SVG/1.1/DTD/svg11.dtd">
<svg version="1.1" id="Layer_1" xmlns="http://www.w3.org/2000/svg" xmlns:xlink="http://www.w3.org/1999/xlink" x="0px" y="0px"
	 width="1000px" height="1000px" viewBox="0 0 1000 1000" enable-background="new 0 0 1000 1000" xml:space="preserve">
<g>
	<path fill-rule="evenodd" clip-rule="evenodd" d="M351.605,104.422c20.328,65.68,8.469,181.371,15.996,270.25
		c5.277,62.293,3.777,132.602,4.008,206.164c43.07-33.523,76.531-82.555,124.098-130.121c28.832-28.867,61.867-62.164,96.078-94.059
		c10.031-9.352,22.281-28.148,32.059-30.039c14.203-2.738,33.23,12.965,46,15.996c5.996,15.637,3.129,27.105,5.996,38.055
		c-66.27,76.496-142.375,143.188-208.152,220.172c55.289,34.078,114.258,72.914,164.105,116.117
		c8.992,7.754,17.137,20.785,24.043,30.039c6.906,9.188,13.488,11.988,18.047,17.98c20.07,26.586,27.562,71.938,44.051,96.113
		c-11.34,27.43-55.125,58.84-80.148,21.957c-6.383-9.512-5.863-22.414-9.969-34.012c-30.559-86.793-145.73-143.352-218.188-190.137
		c-5.637,13.031-19.285,18.113-34.012,22.023c-13.555,49.781,16.418,126.281-12.023,160.164
		c-15.246,18.113-59.652,8.078-68.059-12.055c-4.074-9.773-2.379-37.598-1.988-52.062c0.781-30.168,0.066-65.551,0-92.008
		c-0.262-85.031,4.137-160.812,0-252.266c-5.082-111.977-22.707-245.652,5.996-328.273
		C310.75,98.168,340.266,98.523,351.605,104.422z"/>
</g>
</svg>
