<?xml version="1.0" encoding="utf-8"?>
<!-- Generator: Adobe Illustrator 15.1.0, SVG Export Plug-In . SVG Version: 6.00 Build 0)  -->
<!DOCTYPE svg PUBLIC "-//W3C//DTD SVG 1.1//EN" "http://www.w3.org/Graphics/SVG/1.1/DTD/svg11.dtd">
<svg version="1.1" id="Layer_1" xmlns="http://www.w3.org/2000/svg" xmlns:xlink="http://www.w3.org/1999/xlink" x="0px" y="0px"
	 width="1000px" height="1000px" viewBox="0 0 1000 1000" enable-background="new 0 0 1000 1000" xml:space="preserve">
<g>
	<path fill-rule="evenodd" clip-rule="evenodd" d="M537.488,820.145c24.42-11.078,56.463,14.414,51.221,40.203
		c-6.609,32.459-61.762,51.398-91.482,29.244c-26.861-20.014-33.77-63.432-43.895-106.076
		c-25.641-107.98-19.805-213.045-5.51-340.322c5.002-44.432,4.406-90.232,7.326-133.562c3.096-46.129,9.707-89.875,12.805-129.898
		c-11.584-3.275-17.094,8.189-31.09,5.479c-15.277-2.947-25.998-24.836-25.641-42.078c0.566-26.088,44.49-40.799,65.873-43.926
		c20.012,1.371,34.633,8.07,49.404,14.652c5.121,11.346,8.725,24.211,14.652,34.752c-2.502,87.732-17.57,183.801-21.979,278.113
		C513.129,557.309,491.391,706.744,537.488,820.145z"/>
</g>
</svg>
