<?xml version="1.0" encoding="utf-8"?>
<!-- Generator: Adobe Illustrator 15.1.0, SVG Export Plug-In . SVG Version: 6.00 Build 0)  -->
<!DOCTYPE svg PUBLIC "-//W3C//DTD SVG 1.1//EN" "http://www.w3.org/Graphics/SVG/1.1/DTD/svg11.dtd">
<svg version="1.1" id="Layer_1" xmlns="http://www.w3.org/2000/svg" xmlns:xlink="http://www.w3.org/1999/xlink" x="0px" y="0px"
	 width="1000px" height="1000px" viewBox="0 0 1000 1000" enable-background="new 0 0 1000 1000" xml:space="preserve">
<g>
	<path fill-rule="evenodd" clip-rule="evenodd" d="M526.085,848.131c-23.601,6.52-46.99,13.246-77.478,12.828
		c-15.664-16.401-37.741-37.424-41.999-74.22c-19.503-167.994,55.873-408.942,0-545.815c-63.181-3.941-91.25,27.12-125.94,51.67
		c-82.212,151.275-122.945,343.554-132.409,539.351c-22.757,48.986-53.299,76.95-106.598,58.135
		c-9.304-15.874-35.268-33.956-38.737-58.135c-5.468-38.057,22.234-87.677,25.858-135.616
		c9.254-122.155-3.73-288.254-12.929-416.667C11.702,221.843-3.7,166.177,22.319,124.655c30.382-2.734,64.443-24.601,87.204-12.933
		c32.8,16.875,33.901,124.261,32.272,158.268c22.655-14.82,28.491-43.784,48.463-67.806
		c63.13-76.005,213.878-122.522,303.551-61.392c21.187,24.495,44.209,59.185,48.467,90.461
		c48.146-61.185,88.829-102.711,155.061-122.738c105.125-31.799,193.747,27.179,242.21,96.875
		c34.901,50.463,63.915,127.624,58.029,200.266c-6.938,87.676-60.447,191.594-77.478,281.001c-3.68,19.448-8.41,49.201-6.414,67.704
		c3.785,36.581,42.264,58.447,35.534,90.407c-7.777,35.951-62.236,69.173-100.185,48.568c-36.268-19.765-58.345-89.884-61.29-132.46
		c-5.676-82.63,21.655-163.682,45.205-229.28c16.397-46.045,34.796-100.868,35.534-135.663
		c1.367-73.591-43.315-163.158-106.598-167.943c-37.847-2.836-87.466,33.959-106.602,58.139
		c-47.096,59.708-60.131,170.724-74.216,271.275C566.084,663.111,556.412,774.544,526.085,848.131z"/>
</g>
</svg>
