<?xml version="1.0" encoding="utf-8"?>
<!-- Generator: Adobe Illustrator 15.1.0, SVG Export Plug-In . SVG Version: 6.00 Build 0)  -->
<!DOCTYPE svg PUBLIC "-//W3C//DTD SVG 1.1//EN" "http://www.w3.org/Graphics/SVG/1.1/DTD/svg11.dtd">
<svg version="1.1" id="Layer_1" xmlns="http://www.w3.org/2000/svg" xmlns:xlink="http://www.w3.org/1999/xlink" x="0px" y="0px"
	 width="1000px" height="1000px" viewBox="0 0 1000 1000" enable-background="new 0 0 1000 1000" xml:space="preserve">
<g>
	<path fill-rule="evenodd" clip-rule="evenodd" d="M718.254,887.375c-55.738-55.844-29.477-162.961-22.316-261.41
		c10.797-149.258,3.219-342.059-98.863-389.027c-121.34-55.844-199.082,135.297-229.547,210.445
		c-49.613,122.066-48.473,226.793-57.398,360.277c-1.973,29.164,4.203,59.371-9.602,76.602c-13.648,17.023-82,22.836-105.199,3.113
		c-33.785-28.648-11-153.824-9.602-191.297c5.918-153.359-2.906-365.879,15.988-487.84c22.312-9.914,67.934-22.059,92.43-9.551
		c10.742,20.086,14.688,46.918,15.984,76.5c57.398-82,115.523-172.512,242.312-175.367c78.52-1.762,157.613,52.055,194.562,102.035
		c115.941,157.094,64.355,402.934,63.734,593.141c-0.105,25.742,9.234,56.984-3.219,73.281
		C792.469,887.996,751.156,880.422,718.254,887.375z"/>
</g>
</svg>
