<?xml version="1.0" encoding="utf-8"?>
<!-- Generator: Adobe Illustrator 15.1.0, SVG Export Plug-In . SVG Version: 6.00 Build 0)  -->
<!DOCTYPE svg PUBLIC "-//W3C//DTD SVG 1.1//EN" "http://www.w3.org/Graphics/SVG/1.1/DTD/svg11.dtd">
<svg version="1.1" id="Layer_1" xmlns="http://www.w3.org/2000/svg" xmlns:xlink="http://www.w3.org/1999/xlink" x="0px" y="0px"
	 width="1000px" height="1000px" viewBox="0 0 1000 1000" enable-background="new 0 0 1000 1000" xml:space="preserve">
<g>
	<path fill-rule="evenodd" clip-rule="evenodd" d="M522.648,99.742c65.617-2.879,112.875,36.324,158.961,80.996
		c27.438,26.508,54.094,51.602,71.965,83.973c54.289,98.082,77.43,264.707,24.02,389.98
		c-28.902,67.766-95.887,141.191-161.988,182.98c-53.508,33.785-147.441,70.891-221.941,59.953
		c-24.215-3.516-62.102-22.555-78.016-33.004c-83.973-54.969-139.336-203.777-119.953-353.949
		c11.668-90.418,57.07-194.797,105.016-257.973c17.184-22.652,30.754-48.43,45.012-62.977
		C383.117,151.348,454.301,102.723,522.648,99.742z M363.688,363.719c-47.648,86.023-68.934,241.859-29.977,335.891
		c12.207,29.684,37.691,68.543,74.992,78.016c57.117,14.547,145.484-33.395,188.938-74.988
		c49.211-47.066,93.148-120.25,92.953-200.949c-0.293-144.609-68.445-247.621-161.988-287.945c-2.832-1.27-5.371,2.93-5.957,2.977
		C462.602,219.16,384.973,325.199,363.688,363.719z"/>
</g>
</svg>
