<?xml version="1.0" encoding="utf-8"?>
<!-- Generator: Adobe Illustrator 15.1.0, SVG Export Plug-In . SVG Version: 6.00 Build 0)  -->
<!DOCTYPE svg PUBLIC "-//W3C//DTD SVG 1.1//EN" "http://www.w3.org/Graphics/SVG/1.1/DTD/svg11.dtd">
<svg version="1.1" id="Layer_1" xmlns="http://www.w3.org/2000/svg" xmlns:xlink="http://www.w3.org/1999/xlink" x="0px" y="0px"
	 width="1000px" height="1000px" viewBox="0 0 1000 1000" enable-background="new 0 0 1000 1000" xml:space="preserve">
<g>
	<path fill-rule="evenodd" clip-rule="evenodd" d="M356.883,569.035c-11.508,94.238-10.27,213.086,0,307.551
		c-7.02,16.449-53.832,31.793-73.855,15.996c-8.453-6.633-11.508-46.098-13.977-63.91c-4.164-29.387-9.234-45.641-8-69.957
		c0.586-11.703,6.504-21.453,8-33.938c2.016-17.426-0.848-37.188,0-55.914c2.406-57.34,3.836-120.797,7.93-181.715
		c4.879-71.582,11.25-137.605,10.012-213.734c-0.453-28.934-1.949-56.922,2.016-83.871c14.566-16.609,68.008-23.145,67.875,9.98
		c32.965-55.199,114.168-93.621,191.73-99.863c48.629-3.902,79.316,18.855,115.855,33.969
		c26.656,25.262,51.426,52.438,65.926,89.852c16.969,66.574,10.012,116.734-7.996,189.746
		c-15.086,61.211-26.461,108.379-57.93,149.793c-19.375,25.551-45.055,36.961-73.855,51.949
		C496.473,638.438,423.328,600.402,356.883,569.035z M482.754,539.062c31.727,7.121,79.836,8.906,107.859-13.977
		c29.32-23.992,43.039-68.754,53.895-111.859c13.004-51.426,22.172-101.91,13.98-151.777
		c-6.828-41.641-54.352-83.641-101.879-81.887c-35.367,1.301-60.594,9.688-83.867,19.961
		c-43.691,19.309-56.238,49.801-89.852,77.887c-30.688,48.957-16.125,135.363-23.992,203.723
		C400.445,498.949,438.152,529.051,482.754,539.062z"/>
</g>
</svg>
