<?xml version="1.0" encoding="utf-8"?>
<!-- Generator: Adobe Illustrator 15.1.0, SVG Export Plug-In . SVG Version: 6.00 Build 0)  -->
<!DOCTYPE svg PUBLIC "-//W3C//DTD SVG 1.1//EN" "http://www.w3.org/Graphics/SVG/1.1/DTD/svg11.dtd">
<svg version="1.1" id="Layer_1" xmlns="http://www.w3.org/2000/svg" xmlns:xlink="http://www.w3.org/1999/xlink" x="0px" y="0px"
	 width="1000px" height="1000px" viewBox="0 0 1000 1000" enable-background="new 0 0 1000 1000" xml:space="preserve">
<g>
	<path fill-rule="evenodd" clip-rule="evenodd" d="M626.816,176.717c7.703-5.547,8.998-17.504,17.072-22.713
		c19.045,0.525,39.199-0.092,51.094,7.582c4.129,32.695,2.096,70.385-7.582,104.129c-1.355,4.9-6.408,8.352-7.58,13.252
		c-5.178,22.125-6.965,49.027-11.34,73.836c-4.314,24.652-13.375,51.895-13.252,71.957c0.062,9.459,7.334,19.629,5.67,28.412
		c-1.602,8.812-12.818,17.164-15.1,24.623c-5.055,16.363-6.471,40.061-9.492,60.584c-16.023,109.092,2.219,224.346,49.246,282.096
		c18.982-20.895,63.42,12.326,64.344,32.234c0.863,17.75-15.84,23.789-24.592,39.691c-72.973,26.193-111.369-28.352-136.332-92.758
		c-29.584-76.24-39.752-151.557-28.412-246.133c-112.604,63.852-269.459,29.43-302.926-92.758
		c-27.92-101.848,28.535-200.953,77.596-263.203c39.445-49.984,86.348-91.125,157.164-98.428
		C555.629,104.668,596.309,138.041,626.816,176.717z M454.551,186.209C389.59,221.924,316.186,330.43,327.711,426.67
		c5.547,46.502,41.355,81.416,96.518,85.176c69.275,4.746,110.445-29.029,149.584-62.465
		c14.545-74.791,26.008-140.984,39.752-215.838C564.012,216.348,520.807,149.721,454.551,186.209z"/>
</g>
</svg>
