<?xml version="1.0" encoding="utf-8"?>
<!-- Generator: Adobe Illustrator 15.1.0, SVG Export Plug-In . SVG Version: 6.00 Build 0)  -->
<!DOCTYPE svg PUBLIC "-//W3C//DTD SVG 1.1//EN" "http://www.w3.org/Graphics/SVG/1.1/DTD/svg11.dtd">
<svg version="1.1" id="Layer_1" xmlns="http://www.w3.org/2000/svg" xmlns:xlink="http://www.w3.org/1999/xlink" x="0px" y="0px"
	 width="1000px" height="1000px" viewBox="0 0 1000 1000" enable-background="new 0 0 1000 1000" xml:space="preserve">
<g>
	<path fill-rule="evenodd" clip-rule="evenodd" d="M697.219,231.965c-113.48-18.531-254.707-11.066-313.898,52.332
		c-53.988,88.992-54.387,225.512-64.605,353.867c-6.512,81.23-16.828,149.137-6.109,221.453
		c-11.719,12.02-20.734,26.543-33.855,36.957c-25.34-1.703-23.637-2.402-46.172,3.105c-16.625-11.016-32.754-22.637-46.172-36.859
		c-14.523-82.832-14.125-213.641-3.105-350.859c6.008-73.316-4.41-170.27,0-246.141c1.703-27.844,5.105-61.25,18.527-70.766
		c21.836-15.473,81.832-11.969,95.352,9.215c59.695-89.242,302.484-131.66,436.898-86.137c37.762,12.82,66.805,34.504,86.137,64.605
		c20.633,75.918-37.66,129.504-110.676,80.027C705.23,252.699,695.016,248.492,697.219,231.965z"/>
</g>
</svg>
