<?xml version="1.0" encoding="utf-8"?>
<!-- Generator: Adobe Illustrator 15.1.0, SVG Export Plug-In . SVG Version: 6.00 Build 0)  -->
<!DOCTYPE svg PUBLIC "-//W3C//DTD SVG 1.1//EN" "http://www.w3.org/Graphics/SVG/1.1/DTD/svg11.dtd">
<svg version="1.1" id="Layer_1" xmlns="http://www.w3.org/2000/svg" xmlns:xlink="http://www.w3.org/1999/xlink" x="0px" y="0px"
	 width="1000px" height="1000px" viewBox="0 0 1000 1000" enable-background="new 0 0 1000 1000" xml:space="preserve">
<g>
	<path fill-rule="evenodd" clip-rule="evenodd" d="M373.16,893.621c-15.238-9.609-32.996-16.695-53.672-20.867
		c-45.227-47.172-104.434-96.281-89.387-193.727c27.465-9.512,55.031-39.504,77.449-32.805
		c31.352,9.316,29.41,66.773,53.672,101.328c27.566,39.309,111.227,37.27,152.09,23.875c34.066-11.16,73.473-42.316,92.398-59.594
		c10.383-9.512,33.484-34.941,38.82-47.75c22.617-54.84,11.262-142.527-29.891-172.957c-92.691,33.34-211.293,104.48-313.012,44.742
		c-66.676-60.707-78.809-152.184-44.742-253.461c9.707-28.73,34.844-58.137,53.672-83.469
		c31.352-42.172,123.652-107.977,193.824-98.418c62.215,8.492,164.121,41.734,196.734,92.445
		c4.949,7.668,13.004,27.516,11.938,38.777c-2.137,22.469-48.82,61.145-68.523,59.641c-23.875-1.844-26.203-26.836-44.742-38.773
		c-23.004-14.801-79.977-37.27-125.203-29.848c-56.973,9.367-122.098,80.945-122.293,155.051
		c-0.289,126.949,149.855,24.797,208.672,5.969c29.215-9.316,73.473-10.145,95.41-5.969c42.605,8.152,89.777,64.008,101.422,101.375
		c18.152,58.332,22.422,158.203-3.008,223.617c-17.762,45.91-66,90.848-107.344,122.195
		c-47.656,36.301-118.992,74.734-190.816,74.539C429.746,899.539,402.277,883.039,373.16,893.621z"/>
</g>
</svg>
