<?xml version="1.0" encoding="utf-8"?>
<!-- Generator: Adobe Illustrator 15.1.0, SVG Export Plug-In . SVG Version: 6.00 Build 0)  -->
<!DOCTYPE svg PUBLIC "-//W3C//DTD SVG 1.1//EN" "http://www.w3.org/Graphics/SVG/1.1/DTD/svg11.dtd">
<svg version="1.1" id="Layer_1" xmlns="http://www.w3.org/2000/svg" xmlns:xlink="http://www.w3.org/1999/xlink" x="0px" y="0px"
	 width="1000px" height="1000px" viewBox="0 0 1000 1000" enable-background="new 0 0 1000 1000" xml:space="preserve">
<g>
	<path fill-rule="evenodd" clip-rule="evenodd" d="M523.238,338.352c52.473,5.887,113.98,2.621,160.988,14.012
		c12.453,21.641,19.816,65.344,0,81.633c-62.043,9.148-119.074-5.809-177.316-2.316c-7.672,71.418-17.617,174.086-11.695,256.555
		c2.887,39.488,6.758,104.945,35.008,119.07C577.305,830.617,654,770.094,700.551,786.27c13.82,19.215,27.719,59.309,6.988,76.926
		c-10.176,8.656-33.566,12.148-53.691,18.68c-59.762,19.668-148,31.137-193.562-9.262c-64.93-57.637-63.941-204.426-58.32-319.625
		c1.746-36.449,9.645-87.098,11.617-121.309c-45.715-0.949-93.633,0.34-123.625-16.328c-14.43-15.719-3.418-50.574,0-69.977
		c36.676-18.832,90.289,0.078,139.953-7.023c21.035-61.094,12.68-205.641,63.027-235.598c9.566-5.734,33.414-3.113,48.98,6.988
		C556.801,179.453,540.473,266.172,523.238,338.352z"/>
</g>
</svg>
