<?xml version="1.0" encoding="utf-8"?>
<!-- Generator: Adobe Illustrator 15.1.0, SVG Export Plug-In . SVG Version: 6.00 Build 0)  -->
<!DOCTYPE svg PUBLIC "-//W3C//DTD SVG 1.1//EN" "http://www.w3.org/Graphics/SVG/1.1/DTD/svg11.dtd">
<svg version="1.1" id="Layer_1" xmlns="http://www.w3.org/2000/svg" xmlns:xlink="http://www.w3.org/1999/xlink" x="0px" y="0px"
	 width="1000px" height="1000px" viewBox="0 0 1000 1000" enable-background="new 0 0 1000 1000" xml:space="preserve">
<g>
	<path fill-rule="evenodd" clip-rule="evenodd" d="M292.68,99.551c19.656,10.082,45.531,14.043,58.469,30.789
		c-17.25,177.402-96.375,307.469-64.684,523.781c6.316,42.723,22.762,98.68,55.457,113.926
		c25.973,12.031,69.395,9.125,101.688,6.215c136.785-12.434,261.34-121.344,271.066-255.723
		c4.414-60.773-3.207-139.195-15.344-197.207c-9.527-45.078-48.336-127.512-30.887-160.207c10.73-19.953,60.27-36.754,86.344-27.676
		c28.984,10.078,35.199,46.031,43.121,80.074c22.867,98.332,59.168,227.648,33.898,357.363
		c-10.531,54.055-44.629,122.246-80.129,166.371c-70.199,87.348-192.645,148.52-308.07,160.152
		C138.445,928.5,137.742,608.945,181.766,361.395C199.617,260.457,218.773,138.863,292.68,99.551z"/>
</g>
</svg>
