<?xml version="1.0" encoding="utf-8"?>
<!-- Generator: Adobe Illustrator 15.1.0, SVG Export Plug-In . SVG Version: 6.00 Build 0)  -->
<!DOCTYPE svg PUBLIC "-//W3C//DTD SVG 1.1//EN" "http://www.w3.org/Graphics/SVG/1.1/DTD/svg11.dtd">
<svg version="1.1" id="Layer_1" xmlns="http://www.w3.org/2000/svg" xmlns:xlink="http://www.w3.org/1999/xlink" x="0px" y="0px"
	 width="1000px" height="1000px" viewBox="0 0 1000 1000" enable-background="new 0 0 1000 1000" xml:space="preserve">
<g>
	<path fill-rule="evenodd" clip-rule="evenodd" d="M241.07,105.812c20.922,16.121,24.059,45.184,31.031,68.332
		c51.754,171.18,116.246,354.293,180.129,515.516c89.254-163.398,170.93-421.004,282.523-558.98
		c14.254-17.59,26.586-30.883,52.867-31.035c24.965-0.199,60.852,30.375,65.195,55.848c5.258,31.438-25.875,52.816-46.598,83.848
		c-54.18,80.867-91.48,177.754-133.527,270.195c-43.566,95.672-87.133,175.375-127.363,279.387
		c-20.621,53.574-26.383,92.391-68.23,108.766c-64.996,11.93-81.371-32.145-105.633-93.195
		C309.504,648.418,247.742,508.27,197.605,326.324c-13.445-48.773-75.508-163.301-37.301-204.945
		C174.863,105.559,215.801,103.488,241.07,105.812z"/>
</g>
</svg>
