<?xml version="1.0" encoding="utf-8"?>
<!-- Generator: Adobe Illustrator 15.1.0, SVG Export Plug-In . SVG Version: 6.00 Build 0)  -->
<!DOCTYPE svg PUBLIC "-//W3C//DTD SVG 1.1//EN" "http://www.w3.org/Graphics/SVG/1.1/DTD/svg11.dtd">
<svg version="1.1" id="Layer_1" xmlns="http://www.w3.org/2000/svg" xmlns:xlink="http://www.w3.org/1999/xlink" x="0px" y="0px"
	 width="1000px" height="1000px" viewBox="0 0 1000 1000" enable-background="new 0 0 1000 1000" xml:space="preserve">
<g>
	<path fill-rule="evenodd" clip-rule="evenodd" d="M100.254,99.562c21.512,5.152,49.43,3.902,64.539,15.359
		c6.102,88.105,20.41,174.559,33.82,264.363c19.41,130.031,23.715,261.965,64.539,368.879c43.527-42.426,66.543-115.82,104.566-166
		c25.316-33.422,73.445-71.098,122.977-52.285c86.953,33.172,74.645,202.277,153.695,245.902
		c112.969-77.445,158.699-249.953,172.105-418.008c2.703-33.82,6.305-65.141,0-101.465c-4.102-23.664-23.414-36.723-21.512-55.332
		c2.898-28.918,63.039-71.246,95.258-55.336c44.027,21.816,54.434,117.676,49.23,196.773c-5.703,85.902-13.707,180.91-36.922,258.16
		c-11.91,39.875-39.027,84.652-61.438,122.977c-23.816,40.625-46.73,84.152-70.746,110.668
		c-32.82,36.32-85.852,71.043-141.387,64.539c-90.156-10.605-138.484-117.473-175.211-215.234
		c-57.133,73.949-121.973,257.762-255.156,178.312c-67.441-65.941-94.66-224.141-110.668-353.469
		C76.238,413.359,63.43,322.652,60.328,253.258C57.527,191.172,59.629,122.129,100.254,99.562z"/>
</g>
</svg>
