<?xml version="1.0" encoding="utf-8"?>
<!-- Generator: Adobe Illustrator 15.1.0, SVG Export Plug-In . SVG Version: 6.00 Build 0)  -->
<!DOCTYPE svg PUBLIC "-//W3C//DTD SVG 1.1//EN" "http://www.w3.org/Graphics/SVG/1.1/DTD/svg11.dtd">
<svg version="1.1" id="Layer_1" xmlns="http://www.w3.org/2000/svg" xmlns:xlink="http://www.w3.org/1999/xlink" x="0px" y="0px"
	 width="1000px" height="1000px" viewBox="0 0 1000 1000" enable-background="new 0 0 1000 1000" xml:space="preserve">
<g>
	<path fill-rule="evenodd" clip-rule="evenodd" d="M521.996,506.473c87.371,81.027,189.141,147.055,264.117,248.824
		c12.992,17.695,50.48,63.18,49.082,79.773c-2.199,26.293-61.578,66.781-76.773,64.48c-39.988-5.898-62.383-67.277-85.977-95.172
		c-63.18-74.676-157.148-140.855-224.227-196.535c-73.578,86.27-143.555,184.84-227.23,251.82
		c-80.875-10.699-61.48-90.172-21.492-141.258c4.297-5.496,13.594-6.496,18.395-12.297c5.797-6.797,6.797-19.594,12.297-27.59
		c30.891-44.934,99.367-102.668,125.961-147.453c-33.992-28.391-66.98-64.078-95.273-107.516
		c-29.789-45.836-73.676-97.969-89.07-162.75c-7.199-30.691-10.297-78.676,0-110.566c15.395-9.246,35.988-13.242,55.281-18.441
		c36.191,32.688,40.59,83.074,61.48,122.859c34.891,66.68,87.473,123.664,138.156,178.145
		c76.977-108.367,155.852-214.73,230.328-325.547c40.988-26.441,133.859,19.492,95.27,82.922
		C670.648,290.742,599.371,401.656,521.996,506.473z"/>
</g>
</svg>
