<?xml version="1.0" encoding="utf-8"?>
<!-- Generator: Adobe Illustrator 15.1.0, SVG Export Plug-In . SVG Version: 6.00 Build 0)  -->
<!DOCTYPE svg PUBLIC "-//W3C//DTD SVG 1.1//EN" "http://www.w3.org/Graphics/SVG/1.1/DTD/svg11.dtd">
<svg version="1.1" id="Layer_1" xmlns="http://www.w3.org/2000/svg" xmlns:xlink="http://www.w3.org/1999/xlink" x="0px" y="0px"
	 width="1000px" height="1000px" viewBox="0 0 1000 1000" enable-background="new 0 0 1000 1000" xml:space="preserve">
<g>
	<path fill-rule="evenodd" clip-rule="evenodd" d="M756.625,131.375c-12.797,98.77,29.145,192.066,30.766,293.727
		c2.621,160.879-30.301,303.984-101.855,404.992c-14.727,8.945-25.676,21.742-37.859,33.156
		c-40.863,23.902-117.43,44.41-194.227,33.152c-50.27-7.246-124.289-34.078-163.461-54.434
		c-22.512-11.723-60.527-43.332-68.699-59.219c-12.336-24.211-14.418-73.555,21.359-75.793
		c24.594-1.543,67.312,39.016,97.074,54.516c30.996,16.035,78.57,34.309,113.727,40.246c57.445,9.637,113.422,5.09,151.59-26.062
		c58.828-72.168,85.895-176.219,85.277-307.914c-39.555,48.691-109.875,121.977-187.133,149.234
		c-53.973,18.969-122.598,23.441-163.461-16.617c-23.441-22.938-45.105-75.254-54.438-118.43
		c-5.395-24.906-5.086-54.629-7.094-80.535c-7.863-98,14.344-199.395,23.672-284.207c7.711-19.199,59.293-25.445,73.402-4.742
		c22.516,32.961,1.465,132.695,0,163.422c-2.93,63.227-3.238,133.16,2.391,175.297c4.859,36.508,15.344,81.922,45.031,87.629
		c33.387,6.438,72.863-19.816,87.59-28.414c59.445-34.695,139.637-117.469,149.273-210.84c2.93-28.801-0.387-63.883,0-89.98
		c0.465-32.23-2.16-67.238,11.797-85.277C689.469,100.84,740.664,104.656,756.625,131.375z"/>
</g>
</svg>
