<?xml version="1.0" encoding="utf-8"?>
<!-- Generator: Adobe Illustrator 15.1.0, SVG Export Plug-In . SVG Version: 6.00 Build 0)  -->
<!DOCTYPE svg PUBLIC "-//W3C//DTD SVG 1.1//EN" "http://www.w3.org/Graphics/SVG/1.1/DTD/svg11.dtd">
<svg version="1.1" id="Layer_1" xmlns="http://www.w3.org/2000/svg" xmlns:xlink="http://www.w3.org/1999/xlink" x="0px" y="0px"
	 width="1000px" height="1000px" viewBox="0 0 1000 1000" enable-background="new 0 0 1000 1000" xml:space="preserve">
<g>
	<path fill-rule="evenodd" clip-rule="evenodd" d="M342.771,733.495c109.413-12.991,212.601-30.169,319.975-26.306
		c60.132,2.042,114.998,32.321,178.028,32.856c32.103,17.717,22.439,56.374,23.084,95.781
		c-40.157,56.046-126.057,9.554-194.562,3.219c-33.606-3.113-76.881-3.863-115.428,0c-109.843,11.062-240.516,26.63-316.647,42.949
		c-125.412-3.863-94.812-139.801-46.172-201.218c17.612-22.334,46.281-41.985,69.256-66.038
		c90.09-94.543,189.84-190.426,263.822-290.23c6.441-5.746,16.749-7.519,23.084-13.21c20.725-42.036,59.054-66.354,89.122-98.945
		c-114.14-2.574-283.364,9.503-408.991,16.483c-20.831,1.129-65.389-1.824-79.244-13.206c-11.487-9.449-27.916-70.92-23.084-89.067
		c5.046-19.006,24.697-18.042,39.622-32.966c208.522-4.292,427.672-21.74,653.049-3.328c29.424,14.659,41.234,46.816,59.378,72.584
		c-10.843,25.236-12.347,51.433-49.391,62.655c-172.338,154.136-311.814,355.409-481.68,501.44c0.641,2.789-1.183,3.004-3.222,3.219
		C342.771,731.242,342.771,732.425,342.771,733.495z"/>
</g>
</svg>
